<?xml version="1.0" standalone="no"?>
<!DOCTYPE svg PUBLIC "-//W3C//DTD SVG 1.1//EN" "http://www.w3.org/Graphics/SVG/1.1/DTD/svg11.dtd">
<svg width="100%" height="100%" viewBox="0 0 603 380" version="1.1" xmlns="http://www.w3.org/2000/svg" xmlns:xlink="http://www.w3.org/1999/xlink" xml:space="preserve" style="fill-rule:evenodd;clip-rule:evenodd;stroke-linecap:round;stroke-linejoin:round;stroke-miterlimit:1.41421;">
    <g transform="matrix(1,0,0,1,-0.560169,-15.1219)">
        <rect x="25.777" y="185.203" width="52.358" height="126.126" style="fill:rgb(205,205,205);"/>
    </g>
    <g transform="matrix(1,0,0,0.621921,-0.560169,-26.7819)">
        <rect x="25.777" y="185.203" width="52.358" height="126.126" style="fill:rgb(104,42,136);"/>
    </g>
    <g transform="matrix(1,0,0,0.228481,88.1369,38.7202)">
        <rect x="25.777" y="185.203" width="52.358" height="126.126" style="fill:rgb(104,42,136);"/>
    </g>
    <g transform="matrix(1,0,0,0.165104,88.1369,26.8315)">
        <rect x="25.777" y="185.203" width="52.358" height="126.126" style="fill:rgb(104,42,136);"/>
    </g>
    <g transform="matrix(1,0,0,1.46033,88.1369,-158.434)">
        <rect x="25.777" y="185.203" width="52.358" height="126.126" style="fill:rgb(205,205,205);"/>
    </g>
    <g transform="matrix(1,0,0,1.34885,267.345,-123.729)">
        <rect x="25.777" y="185.203" width="52.358" height="126.126" style="fill:rgb(205,205,205);"/>
    </g>
    <g transform="matrix(1,0,0,0.646734,267.345,-77.9321)">
        <rect x="25.777" y="185.203" width="52.358" height="126.126" style="fill:rgb(104,42,136);"/>
    </g>
    <g transform="matrix(1,0,0,0.42082,356.131,-55.0871)">
        <rect x="25.777" y="185.203" width="52.358" height="126.126" style="fill:rgb(104,42,136);"/>
    </g>
    <g transform="matrix(1,0,0,1.7205,356.131,-239.434)">
        <rect x="25.777" y="185.203" width="52.358" height="126.126" style="fill:rgb(205,205,205);"/>
    </g>
    <g transform="matrix(1.96465,0,0,0.243063,443.361,220.534)">
        <rect x="25.777" y="185.203" width="52.358" height="126.126" style="fill:rgb(205,205,205);"/>
    </g>
    <g transform="matrix(1.96465,0,0,0.243063,443.361,179.981)">
        <rect x="25.777" y="185.203" width="52.358" height="126.126" style="fill:rgb(104,42,136);"/>
    </g>
    <g transform="matrix(1,0,0,0.886123,179.425,20.3312)">
        <rect x="25.777" y="185.203" width="52.358" height="126.126" style="fill:rgb(205,205,205);"/>
    </g>
    <g transform="matrix(1,0,0,0.712486,179.425,-40.2331)">
        <rect x="25.777" y="185.203" width="52.358" height="126.126" style="fill:rgb(104,42,136);"/>
    </g>
    <g transform="matrix(1,0,0,1,-0.560169,-14.7502)">
        <path d="M10.701,311.328L452.894,311.328" style="fill:rgb(127,127,127);stroke-width:1px;stroke:rgb(127,127,127);"/>
    </g>
    <g transform="matrix(1,0,0,1,2.51129,-6.09036)">
        <text x="28.201px" y="324.514px" style="font-family:'ArialMT';font-size:12px;fill:rgb(85,85,85);">Student</text>
        <text x="45.548px" y="336.907px" style="font-family:'ArialMT';font-size:12px;fill:rgb(85,85,85);">1</text>
    </g>
    <g transform="matrix(1,0,0,1,162.154,43.8887)">
        <text x="-156.023px" y="324.514px" style="font-family:'ArialMT';font-size:10px;fill:rgb(85,85,85);">*Scored better on the <tspan x="-59.289px -52.619px -45.398px -39.47px -36.692px " y="324.514px 324.514px 324.514px 324.514px 324.514px ">ACT (</tspan>34) than SA<tspan x="18.709px 24.637px 27.415px " y="324.514px 324.514px 324.514px ">T (</tspan>2140). <tspan x="61.326px 67.444px 70.222px " y="324.514px 324.514px 324.514px ">A 3</tspan>4 <tspan x="83.572px 90.242px 97.464px 103.391px 106.17px " y="324.514px 324.514px 324.514px 324.514px 324.514px ">ACT i</tspan>s equivalent to an SA<tspan x="202.156px 208.084px 210.862px " y="324.514px 324.514px 324.514px ">T 2</tspan>250</text>
    </g>
    <g transform="matrix(1,0,0,1,182.497,-6.23099)">
        <text x="28.201px" y="324.514px" style="font-family:'ArialMT';font-size:12px;fill:rgb(85,85,85);">Student</text>
        <text x="45.548px" y="336.907px" style="font-family:'ArialMT';font-size:12px;fill:rgb(85,85,85);">3</text>
    </g>
    <g transform="matrix(1,0,0,1,91.6674,-6.23099)">
        <text x="28.201px" y="324.514px" style="font-family:'ArialMT';font-size:12px;fill:rgb(85,85,85);">Student</text>
        <text x="45.548px" y="336.907px" style="font-family:'ArialMT';font-size:12px;fill:rgb(85,85,85);">2</text>
    </g>
    <g transform="matrix(1,0,0,1,-8.72486,-18.9702)">
        <text x="152.676px" y="347.818px" style="font-family:'ArialMT';font-size:12px;fill:rgb(85,85,85);">*</text>
    </g>
    <g transform="matrix(1,0,0,1,270.416,-6.23099)">
        <text x="28.201px" y="324.514px" style="font-family:'ArialMT';font-size:12px;fill:rgb(85,85,85);">Student</text>
        <text x="45.548px" y="336.907px" style="font-family:'ArialMT';font-size:12px;fill:rgb(85,85,85);">4</text>
    </g>
    <g transform="matrix(1,0,0,1,359.203,-6.23099)">
        <text x="28.201px" y="324.514px" style="font-family:'ArialMT';font-size:12px;fill:rgb(85,85,85);">Student</text>
        <text x="45.548px" y="336.907px" style="font-family:'ArialMT';font-size:12px;fill:rgb(85,85,85);">5</text>
    </g>
    <g transform="matrix(1,0,0,1,53.802,39.9589)">
        <text x="461.289px" y="179.781px" style="font-family:'ArialMT';font-size:12px;fill:rgb(85,85,85);">Final Score</text>
    </g>
    <g transform="matrix(1,0,0,1,54.7863,63.5703)">
        <text x="456.622px" y="179.781px" style="font-family:'ArialMT';font-size:12px;fill:rgb(229,229,229);">Improvement</text>
    </g>
    <g transform="matrix(1,0,0,1,-440.238,-76.7856)">
        <text x="481.624px" y="179.781px" style="font-family:'ArialMT';font-size:12px;fill:rgb(229,229,229);">360</text>
    </g>
    <g transform="matrix(1,0,0,1,-351.541,-81.3104)">
        <text x="481.624px" y="179.781px" style="font-family:'ArialMT';font-size:12px;fill:rgb(229,229,229);">130</text>
    </g>
    <g transform="matrix(1,0,0,1,-351.541,-108.933)">
        <text x="481.624px" y="179.781px" style="font-family:'ArialMT';font-size:12px;fill:rgb(229,229,229);">120</text>
    </g>
    <g transform="matrix(1,0,0,1,-260.253,-73.464)">
        <text x="481.624px" y="179.781px" style="font-family:'ArialMT';font-size:12px;fill:rgb(229,229,229);">400</text>
    </g>
    <g transform="matrix(1,0,0,1,-172.334,-123.341)">
        <text x="481.624px" y="179.781px" style="font-family:'ArialMT';font-size:12px;fill:rgb(229,229,229);">370</text>
    </g>
    <g transform="matrix(1,0,0,1,-83.5469,-142.335)">
        <text x="481.624px" y="179.781px" style="font-family:'ArialMT';font-size:12px;fill:rgb(229,229,229);">240</text>
    </g>
    <g transform="matrix(1,0,0,1,55.302,104.123)">
        <text x="451.278px" y="179.781px" style="font-family:'ArialMT';font-size:12px;fill:rgb(85,85,85);">Baseline Score</text>
    </g>
    <g transform="matrix(1,0,0,1,-440.238,4.89549)">
        <text x="478.287px" y="179.781px" style="font-family:'ArialMT';font-size:12px;fill:rgb(85,85,85);">1760</text>
    </g>
    <g transform="matrix(1,0,0,1,-439.872,-96.4784)">
        <text x="478.287px" y="179.781px" style="font-family:'ArialMT';font-size:12px;fill:rgb(85,85,85);">2120</text>
    </g>
    <g transform="matrix(1,0,0,1,-351.541,-53.1634)">
        <text x="478.287px" y="179.781px" style="font-family:'ArialMT';font-size:12px;fill:rgb(85,85,85);">2010</text>
    </g>
    <g transform="matrix(1,0,0,1,-260.288,19.2583)">
        <text x="478.287px" y="179.781px" style="font-family:'ArialMT';font-size:12px;fill:rgb(85,85,85);">1700</text>
    </g>
    <g transform="matrix(1,0,0,1,-172.334,-39.1033)">
        <text x="478.287px" y="179.781px" style="font-family:'ArialMT';font-size:12px;fill:rgb(85,85,85);">1950</text>
    </g>
    <g transform="matrix(1,0,0,1,-83.5821,-85.9779)">
        <text x="478.287px" y="179.781px" style="font-family:'ArialMT';font-size:12px;fill:rgb(85,85,85);">2160</text>
    </g>
    <g transform="matrix(1,0,0,1,-351.175,-127.37)">
        <text x="478.287px" y="179.781px" style="font-family:'ArialMT';font-size:12px;fill:rgb(85,85,85);">2250</text>
    </g>
    <g transform="matrix(1,0,0,1,-260.253,-92.7362)">
        <text x="478.287px" y="179.781px" style="font-family:'ArialMT';font-size:12px;fill:rgb(85,85,85);">2100</text>
    </g>
    <g transform="matrix(1,0,0,1,-172.626,-143.272)">
        <text x="478.287px" y="179.781px" style="font-family:'ArialMT';font-size:12px;fill:rgb(85,85,85);">2320</text>
    </g>
    <g transform="matrix(1,0,0,1,-83.3869,-161.707)">
        <text x="478.287px" y="179.781px" style="font-family:'ArialMT';font-size:12px;fill:rgb(85,85,85);">2400</text>
    </g>
</svg>
